<svg version="1.1" id="Layer_1" xmlns="http://www.w3.org/2000/svg" xmlns:xlink="http://www.w3.org/1999/xlink" x="0px" y="0px"
	 width="100%" viewBox="251 250 525 525" xml:space="preserve">
<path fill="#000000" opacity="1.000000" stroke="none" 
	d="
M558.067322,412.975464 
	C576.134583,438.434998 585.780945,467.034058 593.362915,496.557892 
	C602.353394,531.566345 611.665894,566.497192 627.512939,599.226624 
	C637.738525,620.345947 649.316895,640.605652 668.189087,655.389893 
	C688.006409,670.914429 708.147827,669.785706 726.856079,652.640869 
	C735.076172,645.107666 741.300598,636.129395 746.210510,626.160828 
	C747.329041,623.889832 748.051636,621.217529 750.922485,619.403564 
	C751.728943,624.387878 749.722717,628.374268 748.534241,632.347412 
	C741.136230,657.079224 724.463501,673.295288 700.998230,682.945251 
	C673.872253,694.100525 645.638062,696.508728 616.666992,693.607910 
	C586.629639,690.600342 558.701233,681.353760 533.223145,665.317078 
	C498.540710,643.486694 473.742920,613.413086 459.610291,574.727356 
	C449.530945,547.136780 444.008514,518.276367 435.743073,490.183350 
	C426.680725,459.381836 414.856049,429.755371 397.923706,402.353302 
	C391.235352,391.529388 383.338745,381.602417 373.655670,373.297852 
	C345.345398,349.018005 316.125153,353.279175 292.774994,380.549103 
	C287.321014,386.918640 283.461609,394.322662 279.808044,401.832947 
	C278.845215,403.812164 278.282135,406.177155 275.220367,408.066162 
	C275.389557,401.630737 276.809509,396.286407 278.487244,391.076630 
	C284.326324,372.945007 296.301880,359.823120 312.237305,349.834839 
	C329.770752,338.844971 349.229706,334.064148 369.427490,331.936798 
	C400.637085,328.649628 431.243286,331.707672 461.089172,341.738525 
	C500.895966,355.117157 532.915771,379.061310 558.067322,412.975464 
z"/>
</svg>